# xmcd
#
# Track frame offsets: 
#        150
#        16173
#        28717
#        42743
#        58523
#        80399
#        94497
#        112994
#        131071
#        162380
#        181833
#        194428
#        216987
#        234353
#        246966
#
# Disc length: 3554 seconds
#
# Revision: 7
# Processed by: cddbd v1.5.2PL0 Copyright (c) Steve Scherf et al.
# Submitted via: ExactAudioCopy v0.99pb5
#
DISCID=cf0de00f
DTITLE=Milow - Coming of Age
DYEAR=2009
DGENRE=Pop
TTITLE0=Ayo Technology
TTITLE1=You Don't Know
TTITLE2=One Of It
TTITLE3=Out Of My Hands
TTITLE4=Canada
TTITLE5=The Ride
TTITLE6=Stephanie
TTITLE7=Coming Of Age
TTITLE8=The Priest
TTITLE9=House By The Creek
TTITLE10=Dreamers And Renegades
TTITLE11=Herald Of Free Enterprise
TTITLE12=Darkness Ahead And Behind
TTITLE13=Launching Ships
TTITLE14=Born In The Eighties
EXTD=
EXTT0=
EXTT1=
EXTT2=
EXTT3=
EXTT4=
EXTT5=
EXTT6=
EXTT7=
EXTT8=
EXTT9=
EXTT10=
EXTT11=
EXTT12=
EXTT13=
EXTT14=
PLAYORDER=
